<?xml version="1.0" encoding="UTF-8"?>
<!DOCTYPE svg PUBLIC "-//W3C//DTD SVG 1.1//EN" "http://www.w3.org/Graphics/SVG/1.1/DTD/svg11.dtd">
<!-- Creator: CorelDRAW 2021 (64 Bit) -->
<svg xmlns="http://www.w3.org/2000/svg" xml:space="preserve" width="297mm" height="210mm" version="1.1" style="shape-rendering:geometricPrecision; text-rendering:geometricPrecision; image-rendering:optimizeQuality; fill-rule:evenodd; clip-rule:evenodd"
viewBox="0 0 29700 21000"
 xmlns:xlink="http://www.w3.org/1999/xlink"
 xmlns:xodm="http://www.corel.com/coreldraw/odm/2003">
 <defs>
  <style type="text/css">
   <![CDATA[
    .fil0 {fill:#A19992}
   ]]>
  </style>
 </defs>
 <g id="Camada_x0020_1">
  <metadata id="CorelCorpID_0Corel-Layer"/>
  <g id="_2581958563696">
   <path class="fil0" d="M5652.25 12165.24c7.21,705.29 133.37,2244.07 -228.49,2740.12 -459.26,629.59 -2921.42,785.18 -2548.22,-1077.08 159.17,-794.25 1112.3,-958.07 1749.69,-1190.39 288.24,-105.05 724.25,-216.54 919.15,-378.03l107.87 -94.62zm-4199.05 -2098.05l1398.58 -1.85c44.16,-810.85 446.03,-1121.93 1236.82,-1152.7 1980.55,-77.05 1644.85,1473.82 1390.53,1816.46 -196.91,265.3 -400.61,329.39 -749.78,457.96 -584.32,215.16 -1159.07,427.08 -1756.95,619.62 -678.06,218.35 -1066.43,484.61 -1326.61,1048.9 -225.51,489.11 -267.2,1561.52 -148.38,2128.2 420.62,2005.78 4005.42,1853.31 4958.26,910.87 234.74,-232.16 346.18,-301.18 475.06,-692.29 182.98,-555.25 109.17,-2824.53 109.11,-3492.99 -0.15,-1605.15 344.13,-3021.54 -1086.19,-3726.82 -576.72,-284.38 -1384.35,-345.16 -2085.85,-298.79 -1559.38,103.06 -2451.59,723.19 -2414.6,2383.43z"/>
   <path class="fil0" d="M26862.89 12170.61c11.55,699.97 130.58,2248.94 -226.95,2739.6 -432.98,594.18 -2923.27,825.48 -2549.09,-1079.04 157.51,-801.79 1130.78,-963.53 1747.65,-1188.98 191.98,-70.15 352.28,-129.94 540.54,-193.47 314.02,-105.98 286.4,-112.27 487.85,-278.11zm-4199.51 -2106.54l1399.02 1.94c50.1,-802.18 431.57,-1121.46 1233.93,-1152.6 1962.59,-76.16 1661.81,1433.12 1392.52,1817.08 -185.27,264.16 -410.89,339.74 -749.3,458.71 -582.16,204.65 -1160.71,420.13 -1758.07,618.94 -692.89,230.6 -1048.66,467.99 -1323.48,1051.7 -232.38,493.59 -271.08,1541.38 -149.3,2120.6 424.36,2018.34 3999.28,1848.55 4959.82,919.55 540.34,-522.59 581.93,-846.46 582.24,-1815.05 0.23,-774.12 51.59,-4319.49 -33.33,-4780.59 -366.72,-1991.23 -3658.47,-1968.19 -4931.23,-1025.95 -505.26,374.07 -642.6,982.45 -622.82,1785.67z"/>
   <path class="fil0" d="M11263.72 7787.8c-65.76,1382.55 -4.49,4228.16 -4.91,5778.84 -0.18,661.82 -81,1391.37 258.6,1939.96 791.87,1279.24 3695.37,1309.56 4782.65,341.31 620.46,-552.53 548.83,-1315.04 548.07,-2324.47 -1.02,-1332.86 62.88,-4660.07 -6.75,-5741.97l-1375.45 18.87c-46.07,1462.32 -3.29,2999.96 -2.8,4470.53 0.61,1819.76 376.77,3010.94 -1445.08,3006.42 -703.56,-1.74 -1272.8,-208.53 -1348.33,-889.88 -122.24,-1102.76 51.42,-4976.19 -32.31,-6604.52l-1373.69 4.91z"/>
   <polygon class="fil0" points="9820.97,4456.93 8487.1,4450.52 8482.04,16389.27 9828.53,16389.84 "/>
   <path class="fil0" d="M21970.12 7697.46c-959.01,-78.46 -1920.99,-73.7 -2714.02,350.89 -812.92,435.23 -984.75,947.15 -984.36,2106.08l10.52 6242.45 1371.56 -4.86c62.7,-327.05 16.76,-4055.17 17.47,-4725.85 0.54,-503.49 -84.31,-1920.17 138.06,-2243.77 391.07,-569.1 1102.27,-449.15 1870.09,-523.81l290.68 -1201.13z"/>
   <path class="fil0" d="M9820.97 4456.93l7.56 11932.91 -1346.49 -0.57 5.06 -11938.75c-64.71,94.84 -51.45,214.56 -49.93,346.59 19.22,1677.59 -47.37,11207.99 19.28,11611.04 230.25,52.97 1188.06,61.39 1398.77,-8.2l12.11 -9009.83c0.11,-161.09 57.8,-2784.94 -46.36,-2933.19z"/>
  </g>
 </g>
</svg>
