<?xml version="1.0" encoding="UTF-8"?>
<!DOCTYPE svg PUBLIC "-//W3C//DTD SVG 1.1//EN" "http://www.w3.org/Graphics/SVG/1.1/DTD/svg11.dtd">
<!-- Creator: CorelDRAW 2021 (64 Bit) -->
<svg xmlns="http://www.w3.org/2000/svg" xml:space="preserve" width="297mm" height="210mm" version="1.1" style="shape-rendering:geometricPrecision; text-rendering:geometricPrecision; image-rendering:optimizeQuality; fill-rule:evenodd; clip-rule:evenodd"
viewBox="0 0 29700 21000"
 xmlns:xlink="http://www.w3.org/1999/xlink"
 xmlns:xodm="http://www.corel.com/coreldraw/odm/2003">
 <defs>
  <style type="text/css">
   <![CDATA[
    .fil1 {fill:#9ED1D5}
    .fil2 {fill:#A19992}
    .fil0 {fill:#A2C798}
    .fil3 {fill:#FFAB5F}
   ]]>
  </style>
 </defs>
 <g id="Camada_x0020_1">
  <metadata id="CorelCorpID_0Corel-Layer"/>
  <g id="_2582315829920">
   <path class="fil0" d="M1753.2 9872.64c-78.35,248.1 -131.43,749.02 -182.55,1052.44 -60.91,361.5 -122.64,721.08 -175.6,1081.46 810.16,78.98 3526.08,180.98 4378.76,180.98 885.19,0 1880.09,37.55 2734.47,-185.64 586.18,-153.13 890.93,-301.88 889.6,-1005.48 -0.53,-286.41 30.19,-887.57 -39.01,-1099.08 -344.42,-105.39 -1701.29,-135.07 -2169.44,-150.6 -1003.85,-33.3 -4617.34,-177.91 -5436.23,125.92z"/>
   <path class="fil1" d="M7196.89 9234.36c707.97,0 1360.26,-58.22 2041.06,-156.62 220.61,-31.88 247.24,-14.6 350.71,-181.93 408.94,-661.33 466.28,-1389.82 288.71,-2143.18 -69.4,-294.41 -47.73,-262.89 -571.21,-233.39l-3248.96 135.58c-823.78,40.02 -2259.1,-74.05 -2314.55,1053.52l-73.17 1199.47c12.83,179.66 131.34,131.91 318.17,133.74 1079.81,10.61 2150.64,192.81 3209.24,192.81z"/>
   <path class="fil2" d="M18328.69 4243.78l-0.75 5108.74 897.55 -0.12c-1.39,-1138.35 -25.57,-2465.61 -3.46,-3573.93l4.63 -110.84c80.09,76.5 230.88,329.12 306.89,443.32 319.59,480.15 2140.94,3224.93 2201.02,3240.73l822.87 0.53 -0.16 -5205.64 -904.58 5.33 -6.67 3680.68 -613.56 -906c-216.55,-325.7 -419.53,-623.81 -627.09,-934.94 -73.64,-110.39 -1184.09,-1822.32 -1265.83,-1844.34l-811.13 -0.72 0.27 97.2z"/>
   <path class="fil2" d="M13614.86 7006.22c-72.53,-1070.6 237.38,-2034.15 1198.81,-2154.71 1132.53,-142.02 1644.93,573.1 1705.82,1623.43 61.71,1064.56 -189.95,2039.28 -1176.74,2175.82 -1196.97,165.62 -1656.96,-597.28 -1727.89,-1644.54zm-921.37 -334.84c-0.54,1627.46 669.82,2778.56 2372.16,2781 1568.23,2.25 2383.25,-1048.9 2383.25,-2613.59l0 -195.32c0,-1450.2 -809.74,-2586.62 -2243.73,-2586.62 -862.46,0 -1470.74,183.34 -1927.91,743.1 -382.01,467.71 -583.49,1088.6 -583.77,1871.43z"/>
   <path class="fil2" d="M23630.51 4243.78l-0.62 5108.43 3377.05 -1.65 -4.46 -762.8 -2466.09 -2.71 0.04 -1476.7 2182.24 0.39 8.87 -770.45c-513.26,-14.15 -1793.72,23.32 -2192.43,-9.4l0.72 -1404.63c230.82,-30.91 2009.78,-9.12 2402.58,-8.54l0.16 -769.63 -3308.32 0.67 0.26 97.02z"/>
   <path class="fil3" d="M9680.48 5926.88c48.12,-467.02 97.09,-940.4 75.29,-1419.58 -43.11,-947.22 -267.67,-830.42 -717.26,-830.21 -1023.92,0.49 -2047.86,0.14 -3071.78,-0.3 -64.67,493.42 -132.33,978.61 -203.62,1475.92 -83.17,580.26 103.49,984.55 695.92,946.77 1068.67,-68.14 2161.82,-134.48 3221.45,-172.6z"/>
   <path class="fil2" d="M22334.23 13870.09l288.74 -2.02 1.96 -1651.34c35.05,33.56 -2.13,-9 45.14,46.5l799.88 1182.83c101.49,148.2 180.93,288.94 278.86,419.21l272.45 4.5 2.96 -2174.57 -279.4 0 -2.78 1669.57c-102.53,-107.08 -195.87,-277.05 -284.01,-409.25l-845.38 -1260.14 -271.68 -0.09 -6.74 2174.8z"/>
   <path class="fil2" d="M13852.32 11928.93c523.91,-90.83 742.49,261.11 781.77,721.91 40.54,475.5 -90.87,913.33 -527.03,986.64 -513.01,86.23 -755.7,-260.02 -793.08,-717.52 -40.65,-497.49 87.04,-912.78 538.34,-991.03zm-96.17 -246.03c-577.75,118.89 -805.94,629.96 -734.67,1303.52 66.99,633 458.33,1019.25 1168.56,899.35 576.6,-97.34 808.79,-644.15 734.66,-1326.65 -64.92,-597.72 -478.76,-1018.15 -1168.55,-876.22z"/>
   <path class="fil2" d="M13389.27 15379.35l1056.33 -9 -4.23 -237.45 -1338.77 -5.49c-7.83,311.71 -23.53,1824.99 2.04,2174.44l1366.49 -9.89 1.68 -241.44 -1082.98 -1.48 -0.68 -725.44 958.85 0.15 5.48 -250.65 -964.44 0.16 0.23 -693.91z"/>
   <path class="fil2" d="M15298.44 15958.32c159.09,-49.3 287.54,-10.49 403.89,65.72 152.9,100.15 134.14,125.31 131.99,357.09 -3.49,376.59 38.34,604.38 -297.97,694.02 -649.97,173.25 -721,-967.12 -237.91,-1116.83zm532.77 -93.64c-133.8,-59.05 -174.5,-130.91 -375.14,-155.89 -932.93,-116.16 -940.09,1331.47 -366.23,1570.43 435.4,181.31 686.19,-121.54 793.09,-188.82l46.6 211.38 193.87 -4.52 1.25 -2238.07 -291.59 -3.05 -1.85 808.54z"/>
   <path class="fil2" d="M20206.69 12942.84c39.42,-258.12 139.78,-434.03 411.98,-437.52 324.75,-4.16 349.64,166.73 386.13,442.68l-798.11 -5.16zm996.81 848.79l-0.37 -235.57c-513.39,107.89 -912.25,257.01 -993.37,-373.3l1064.25 -8.25c0,-454.4 -41.64,-789.52 -446.38,-880.03 -1048.8,-234.55 -1075.91,1104.81 -666.01,1447.03 251.22,209.74 742.72,190.24 1041.88,50.12z"/>
   <path class="fil2" d="M24661.22 12948.8c13.89,-255.82 133.2,-434.79 395.62,-442.55 302.43,-8.94 384.09,165.4 396.73,442.17l-792.35 0.38zm993.99 810.04l-0.52 -203.21c-221.33,45.05 -952.03,353.42 -993.16,-381.73l1064.8 0.56c-0.36,-416.45 -38.29,-791.26 -433.96,-879.38 -1023.61,-227.99 -1125.71,1052.73 -668.25,1447.79 197.18,170.29 850.21,248.71 1031.09,15.97z"/>
   <path class="fil2" d="M20577.75 16534.06c44.01,246.44 -15.12,363.93 -150.08,466.31 -451.23,342.27 -731.82,-229.97 -437.68,-410.84 130.14,-80.03 418.23,-55.47 587.76,-55.47zm-836.03 -722.07l-7.52 221.6c400,-50.52 843.55,-331.53 843.55,279.6 -140.84,25.29 -1129.91,-115.48 -976.14,639.37 43.15,211.88 192.71,352.61 433.62,374.07 130.3,11.61 251.46,-3.74 357.97,-54.07 138.13,-65.27 107.6,-105.77 224.53,-180.49l52.53 208.89 188.81 -4.84c14.6,-268.07 34.12,-1150.56 -47.11,-1330.11 -148.67,-328.58 -735.29,-320.06 -1070.24,-154.02z"/>
   <path class="fil2" d="M17201.62 13101.76c46.39,262.01 -13.38,378.3 -161.39,482.45 -447.38,314.79 -733.73,-262.28 -407.55,-435.28 150,-79.55 386.35,-47.17 568.94,-47.17zm-841.31 -498.06c175.54,-19.44 320.03,-104.96 547.15,-99.91 270.75,6.02 300.03,125.29 305.73,389.03 -248.38,0 -526.44,-30.85 -735.01,73.46 -177.99,89.02 -303.55,294.64 -250.98,552.65 43.35,212.73 189.18,351.77 431.14,376.35 329.77,33.49 409.95,-96.48 583.78,-233.55l56.02 206.84 189.82 -1.79c17.27,-343.74 61.88,-1217.59 -106.32,-1419.62 -183.49,-220.38 -662.48,-196.04 -917.88,-109.47 -147.41,49.96 -113.64,82.52 -103.45,266.01z"/>
   <path class="fil2" d="M23573.76 15952.11c682.04,-148.8 751.42,1029.2 199.8,1131.87 -338.74,63.05 -518.17,-148.12 -544.38,-463.4 -27.61,-332.1 48.75,-603.93 344.58,-668.47zm-633.18 708.69c72.2,930.98 1592.41,971.82 1473.98,-279.63 -45.19,-477.65 -370.32,-743.01 -892.46,-667.7 -442.85,63.88 -620.22,448.29 -581.52,947.33z"/>
   <path class="fil2" d="M16531.22 15738.24c0.11,360.31 -64.8,1134.46 108.03,1384.7 244.98,354.69 752.39,218.02 985.62,-64.56 50.05,278.04 -5,242.62 243.94,242.62l0.98 -1564.03 -291.08 4.77c0.25,294.93 8.21,599.28 2.09,892.89 -5.19,248.88 -170.64,429.9 -405.8,455.85 -295.29,32.58 -359.76,-221.72 -359.65,-485.25 0.13,-285.98 0.94,-572 1.07,-863.36l-285.2 -3.63z"/>
   <path class="fil2" d="M25026.02 17301.42c27.85,-531.16 -167.29,-1294.62 405.13,-1349.82 554.32,-53.46 341.07,611.68 387.73,1347.89l286.12 -7.32c22.96,-334.17 46.38,-1110.19 -96.53,-1360.74 -96.87,-169.85 -287.58,-248.99 -535.65,-225.38 -292.45,27.84 -366.45,172.21 -484.29,252.44l-43.15 -221.28 -194.86 4.9 2.73 1557.56 272.77 1.75z"/>
   <path class="fil2" d="M26404.71 13061.26c-91.57,198.71 -495.4,660.97 -538.01,806.78 481.86,6.72 267.99,-71.44 651.63,-542.95l79.05 -77.68 402.7 622.37 314.08 -0.47c-62.79,-177.7 -424.06,-589.11 -539.34,-808.05 87.18,-185.81 453.44,-604.49 512.65,-753.5 -367.02,-7.15 -256.69,-38.01 -465.76,259.97 -46.44,66.19 -55.58,84.33 -101.09,150.32l-138.64 155.67c-61.19,-128.55 -307.97,-567.96 -466.58,-567.96l-222.39 2.35c84.66,187.16 402.44,544.1 511.7,753.15z"/>
   <path class="fil2" d="M19392.91 16987.63c-223.3,61.75 -398.84,165.34 -648.85,68.46 -350.76,-135.92 -366.76,-917.25 -2.77,-1072.64 249.71,-106.6 391.04,-17.87 610.87,47.37l-0.14 -224.27c-263.66,-146.3 -605.05,-141.36 -857.97,12.66 -534.87,325.74 -456.93,1947.19 899.09,1407.86l-0.23 -239.44z"/>
   <path class="fil2" d="M19002.81 13801.1l-0.82 -241.74c-206.41,56.04 -369.99,155.29 -627.13,72.11 -388.58,-125.71 -365.62,-911.24 -62.09,-1061.86 307.17,-152.43 412.66,3.69 651.93,21.44l-2.73 -214.13c-425.12,-223.16 -1175.93,-153.78 -1159.54,740.77 13.2,720.3 533.94,936.47 1200.38,683.41z"/>
   <path class="fil2" d="M27676.25 12307.03c-45.52,7.66 -158.98,34.2 -197.98,52.01 -110.08,50.27 -76.98,38.71 -76.94,178.37l263.51 7.94c118.59,654.88 -310,1410.13 637.21,1326.62l1.84 -251.52c-330.14,17.46 -351.43,-49.86 -349.71,-363.39 1.03,-189.9 -19.82,-544.58 12.97,-712.83l323.01 -2.25 0.19 -232.54 -335.61 -3.82 0.72 -423.41c-190.5,-24.28 -205.01,-38.76 -279.21,424.82z"/>
   <path class="fil2" d="M21608.85 15307.64c-181.25,0.31 -170.7,-40.68 -212.84,122.41 -95.1,368.05 -7.15,274.42 -233.59,351.38 -135.93,46.21 -99,19.71 -98.74,182.99l260.16 0 0.07 166.22c0.07,830.17 -123.89,1209.24 633.48,1170.76l0.82 -250.37c-108.69,6.22 -205.4,0.27 -290.32,-24.52 -104.91,-215.04 -60.06,-826.55 -60.22,-1053.45l335.26 -8.46 0.04 -226.17 -334.82 -11.58 0.7 -419.21z"/>
   <path class="fil2" d="M19152.93 11666.09c25.58,195.64 130.69,110.62 155.62,223.22l0.5 1976.01 275.73 4.65 3.31 -2246.13 -337.26 1.84c-3.53,0.71 27.23,-54.21 -97.9,40.41z"/>
   <path class="fil2" d="M15291 13451.91l2.3 413.68 282.38 4.72c59.86,-642.38 -202.2,-1306.68 507.99,-1309.38l-4.35 -252.4c-374.03,-12.61 -355.73,64.66 -535.53,244.09l-55.13 -246 -197.69 1.61 0.03 1143.68z"/>
   <path class="fil2" d="M22325.72 17299.6l275.88 1.77 -0.1 -1563.36 -433.79 0.23c1.59,246.12 75.75,87.5 155.23,252.88l2.78 1308.48z"/>
   <polygon class="fil2" points="22264.88,15398.27 22593.04,15398.26 22600.05,15132.47 22271.26,15132.56 "/>
  </g>
 </g>
</svg>
